<?xml version="1.0" encoding="UTF-8"?>
<svg version="1.1" xmlns="http://www.w3.org/2000/svg" width="96" height="96">
<path d="M0 0 C3.65895269 0.80452876 5.72202634 2.52785145 8.375 5.0625 C12.33547576 8.19943638 15.32248191 8.31927391 20.3125 8.375 C28.34945203 8.56022034 33.38386939 11.29046181 39 17 C39 17.66 39 18.32 39 19 C38.01 19 37.02 19 36 19 C36 36.16 36 53.32 36 71 C12.9 71 -10.2 71 -34 71 C-34 53.84 -34 36.68 -34 19 C-34.99 19 -35.98 19 -37 19 C-37 17 -37 17 -35.12109375 15.08984375 C-28.12908954 9.48199176 -23.50886744 8.5255034 -14.6640625 8.48046875 C-9.29237382 7.77607887 -6.28478921 5.10151288 -2.3671875 1.51953125 C-1.58601563 1.01808594 -0.80484375 0.51664063 0 0 Z " fill="#BFA88A" transform="translate(47,12)"/>
<path d="M0 0 C4.69931508 2.57360372 8.95066322 5.44376679 12.58203125 9.4140625 C13.44781454 12.50989365 13.159124 14.18234307 12.58203125 17.4140625 C11.88078125 16.6509375 11.17953125 15.8878125 10.45703125 15.1015625 C6.54785535 11.44733286 3.45818484 9.68695757 -1.85546875 8.9140625 C-6.3697853 9.54765079 -9.11390744 11.33400535 -12.41796875 14.4140625 C-13.69756466 16.97325432 -13.58613411 18.86890278 -13.60546875 21.7265625 C-13.62673828 23.14388672 -13.62673828 23.14388672 -13.6484375 24.58984375 C-13.40317955 27.59529286 -12.76298398 29.72403203 -11.41796875 32.4140625 C-7.03700696 35.28906867 -1.46809938 34.93821115 3.58203125 34.4140625 C7.22629399 33.01838741 8.27201748 31.91229892 10.33203125 28.6015625 C11.54887604 25.49860828 12.18903912 22.71519635 12.58203125 19.4140625 C12.91203125 19.4140625 13.24203125 19.4140625 13.58203125 19.4140625 C14.60901411 25.57595968 14.65303833 31.63431231 14.54492188 37.86523438 C14.50575343 41.00774877 14.57947663 43.40639864 15.58203125 46.4140625 C14.26203125 47.7340625 12.94203125 49.0540625 11.58203125 50.4140625 C7.62203125 47.4440625 3.66203125 44.4740625 -0.41796875 41.4140625 C-3.79427149 43.10221387 -6.60729976 44.86437664 -9.66796875 47.0390625 C-10.56 47.67070313 -11.45203125 48.30234375 -12.37109375 48.953125 C-13.38429688 49.67628906 -13.38429688 49.67628906 -14.41796875 50.4140625 C-13.75796875 50.7440625 -13.09796875 51.0740625 -12.41796875 51.4140625 C-12.41796875 56.0340625 -12.41796875 60.6540625 -12.41796875 65.4140625 C-20.33796875 65.4140625 -28.25796875 65.4140625 -36.41796875 65.4140625 C-36.41796875 47.9240625 -36.41796875 30.4340625 -36.41796875 12.4140625 C-30.47796875 12.0840625 -24.53796875 11.7540625 -18.41796875 11.4140625 C-13.04264462 7.99340169 -8.93483466 4.81340938 -4.41015625 0.5 C-2.41796875 -0.5859375 -2.41796875 -0.5859375 0 0 Z " fill="#C8B398" transform="translate(49.41796875,17.5859375)"/>
<path d="M0 0 C5.88797816 2.10057599 10.77427221 5.37987095 15 10 C15.86578329 13.09583115 15.57709275 14.76828057 15 18 C14.29875 17.236875 13.5975 16.47375 12.875 15.6875 C8.9658241 12.03327036 5.87615359 10.27289507 0.5625 9.5 C-3.95181655 10.13358829 -6.69593869 11.91994285 -10 15 C-11.27959591 17.55919182 -11.16816536 19.45484028 -11.1875 22.3125 C-11.20167969 23.25738281 -11.21585938 24.20226562 -11.23046875 25.17578125 C-10.9852108 28.18123036 -10.34501523 30.30996953 -9 33 C-4.61903821 35.87500617 0.94986937 35.52414865 6 35 C9.64426274 33.60432491 10.68998623 32.49823642 12.75 29.1875 C13.96684479 26.08454578 14.60700787 23.30113385 15 20 C15.33 20 15.66 20 16 20 C17.02698286 26.16189718 17.07100708 32.22024981 16.96289062 38.45117188 C16.92372218 41.59368627 16.99744538 43.99233614 18 47 C16.68 48.32 15.36 49.64 14 51 C10.04 48.03 6.08 45.06 2 42 C-1.37630274 43.68815137 -4.18933101 45.45031414 -7.25 47.625 C-8.14203125 48.25664063 -9.0340625 48.88828125 -9.953125 49.5390625 C-10.96632813 50.26222656 -10.96632813 50.26222656 -12 51 C-11.34 51.33 -10.68 51.66 -10 52 C-10 56.62 -10 61.24 -10 66 C-12.31 66 -14.62 66 -17 66 C-17.17792768 59.00779391 -17.30025694 52.01617425 -17.38452148 45.0222168 C-17.41965856 42.64471624 -17.46737953 40.26736623 -17.52807617 37.89038086 C-17.61328709 34.466907 -17.65275737 31.04543693 -17.68359375 27.62109375 C-17.71972275 26.56353378 -17.75585175 25.50597382 -17.79307556 24.41636658 C-17.79592379 19.02655947 -17.51755757 15.85979009 -13.62133789 11.94165039 C-12.4292541 10.94288331 -11.22304245 9.96060743 -10 9 C-9.13375 8.113125 -8.2675 7.22625 -7.375 6.3125 C-5.02997514 4.02918632 -2.59006309 1.99804867 0 0 Z " fill="#D3BCA0" transform="translate(47,17)"/>
<path d="M0 0 C1.48831242 0.00667405 2.97660807 0.01863442 4.46484375 0.03515625 C5.22345703 0.03966797 5.98207031 0.04417969 6.76367188 0.04882812 C8.64326246 0.06064945 10.52281274 0.07858547 12.40234375 0.09765625 C12.45169585 5.61522101 12.48804037 11.13265796 12.51220703 16.65039062 C12.52227909 18.52834307 12.53593737 20.40627978 12.55322266 22.28417969 C12.57741828 24.97985715 12.58881458 27.67532771 12.59765625 30.37109375 C12.60797882 31.21384857 12.61830139 32.05660339 12.62893677 32.92489624 C12.62933519 34.98386872 12.52491963 37.0423356 12.40234375 39.09765625 C11.74234375 39.75765625 11.08234375 40.41765625 10.40234375 41.09765625 C9.90734375 43.57265625 9.90734375 43.57265625 9.40234375 46.09765625 C5.77234375 46.09765625 2.14234375 46.09765625 -1.59765625 46.09765625 C-1.92765625 45.43765625 -2.25765625 44.77765625 -2.59765625 44.09765625 C-3.58765625 44.59265625 -3.58765625 44.59265625 -4.59765625 45.09765625 C-4.62292749 38.8496995 -4.64048969 32.60175584 -4.65258789 26.35375977 C-4.65762923 24.22647611 -4.66446216 22.09919594 -4.6730957 19.97192383 C-4.68517004 16.92137799 -4.69088639 13.8708778 -4.6953125 10.8203125 C-4.70047379 9.8630275 -4.70563507 8.90574249 -4.71095276 7.91944885 C-4.71102829 7.0386113 -4.71110382 6.15777374 -4.71118164 5.25024414 C-4.71340225 4.47080948 -4.71562286 3.69137482 -4.71791077 2.88832092 C-4.49057146 -0.49690297 -3.49804434 0.09495234 0 0 Z " fill="#CBB69B" transform="translate(70.59765625,32.90234375)"/>
<path d="M0 0 C3.65895269 0.80452876 5.72202634 2.52785145 8.375 5.0625 C12.33547576 8.19943638 15.32248191 8.31927391 20.3125 8.375 C28.34945203 8.56022034 33.38386939 11.29046181 39 17 C39 17.66 39 18.32 39 19 C35.20130598 20.26623134 31.58627888 20.30139516 27.625 20.375 C26.49191406 20.43107422 26.49191406 20.43107422 25.3359375 20.48828125 C21.25345223 20.55251616 19.57211645 20.47564521 16.3359375 17.78515625 C15.56507812 16.86605469 14.79421875 15.94695313 14 15 C12.03656412 13.31071408 10.03540393 11.66434213 8 10.0625 C6.989375 9.24910156 5.97875 8.43570312 4.9375 7.59765625 C2.17319829 5.69574359 2.17319829 5.69574359 -0.51953125 6.4609375 C-3.46271185 8.28709995 -6.04778863 10.3189254 -8.6875 12.5625 C-15.21288942 18.08126642 -15.21288942 18.08126642 -20.7890625 18.31640625 C-21.73007812 18.35830078 -22.67109375 18.40019531 -23.640625 18.44335938 C-24.62546875 18.48267578 -25.6103125 18.52199219 -26.625 18.5625 C-27.61757813 18.60568359 -28.61015625 18.64886719 -29.6328125 18.69335938 C-32.08839838 18.79961069 -34.54408703 18.90164964 -37 19 C-37 17 -37 17 -35.12109375 15.08984375 C-28.12908954 9.48199176 -23.50886744 8.5255034 -14.6640625 8.48046875 C-9.29237382 7.77607887 -6.28478921 5.10151288 -2.3671875 1.51953125 C-1.58601563 1.01808594 -0.80484375 0.51664063 0 0 Z " fill="#DA5022" transform="translate(47,12)"/>
<path d="M0 0 C3.02508145 1.73602105 5.41790069 3.83580137 7 7 C7.68128376 13.81283762 7.68128376 13.81283762 5.953125 16.82421875 C2.82207185 20.62752744 1.13366332 21.88663367 -3.75 22.375 C-7.10058068 22.35058775 -8.84894532 21.75601354 -11.4375 19.625 C-14.88331435 16.0951414 -15.39555836 14.0716348 -15.359375 9.10546875 C-14.72418186 5.38406547 -12.66020984 3.59687151 -10 1 C-6.77140153 -0.61429923 -3.49006347 -0.59570657 0 0 Z " fill="#ECEAE7" transform="translate(52,29)"/>
<path d="M0 0 C7.26 0 14.52 0 22 0 C22 4.95 22 9.9 22 15 C14.74 15 7.48 15 0 15 C0 10.05 0 5.1 0 0 Z " fill="#33373E" transform="translate(37,68)"/>
<path d="M0 0 C3.28133541 2.11463838 4.93976587 3.35514469 6.8125 6.8125 C7.47206843 11.73332513 7.46207582 16.17146635 5.625 20.8125 C2.81327238 23.91509599 0.70391377 25.58503179 -3.55859375 26.09765625 C-8.51408844 26.26701194 -12.30761628 26.22209478 -16.1875 22.8125 C-19.79386215 18.8330659 -19.69085514 14.5396012 -19.5390625 9.40625 C-18.89940552 4.68700293 -16.45088466 2.80272041 -12.875 0 C-8.27920085 -2.03070195 -4.65706181 -1.73498381 0 0 Z M-16.1875 6.8125 C-17.80179923 10.04109847 -17.78320657 13.32243653 -17.1875 16.8125 C-15.45147895 19.83758145 -13.35169863 22.23040069 -10.1875 23.8125 C-5.06379602 24.41978845 -5.06379602 24.41978845 -0.36328125 22.765625 C3.44002744 19.63457185 4.69913367 17.94616332 5.1875 13.0625 C5.16308775 9.71191932 4.56851354 7.96355468 2.4375 5.375 C-1.0923586 1.92918565 -3.1158652 1.41694164 -8.08203125 1.453125 C-11.80343453 2.08831814 -13.59062849 4.15229016 -16.1875 6.8125 Z " fill="#E2A80B" transform="translate(54.1875,27.1875)"/>
<path d="M0 0 C2.90875136 1.59739295 5.33728743 3.42898053 7.89453125 5.54296875 C8.77753906 6.26742187 9.66054688 6.991875 10.5703125 7.73828125 C11.56611328 8.56972656 11.56611328 8.56972656 12.58203125 9.41796875 C9.40415584 10.47726055 7.15614182 10.53255814 3.8203125 10.515625 C2.70205078 10.51240234 1.58378906 10.50917969 0.43164062 10.50585938 C-0.73560547 10.49748047 -1.90285156 10.48910156 -3.10546875 10.48046875 C-4.28431641 10.47595703 -5.46316406 10.47144531 -6.67773438 10.46679688 C-9.59119664 10.45500148 -12.50455738 10.43854145 -15.41796875 10.41796875 C-12.51740138 7.47208002 -9.63477786 4.58115515 -6.41796875 1.98046875 C-5.77859375 1.44550781 -5.13921875 0.91054688 -4.48046875 0.359375 C-2.41796875 -0.58203125 -2.41796875 -0.58203125 0 0 Z " fill="#EA5020" transform="translate(49.41796875,58.58203125)"/>
<path d="M0 0 C10.17858135 -0.98901195 15.92301656 -0.60401275 24.12109375 6.0546875 C26 8 26 8 26 10 C16.00055089 10.19850023 9.33420311 9.91308181 1.625 2.8125 C0 1 0 1 0 0 Z " fill="#BB2A00" transform="translate(60,21)"/>
<path d="M0 0 C-1.64302953 1.68997323 -3.31471312 3.35216394 -5 5 C-5.75667969 5.74765625 -6.51335938 6.4953125 -7.29296875 7.265625 C-10.97321826 9.62353378 -14.02390588 9.66568448 -18.3125 9.75 C-19.42334961 9.79447266 -19.42334961 9.79447266 -20.55664062 9.83984375 C-22.37052046 9.91005845 -24.18526278 9.95735048 -26 10 C-26 8 -26 8 -24.12109375 6.0546875 C-15.92301656 -0.60401275 -10.17858135 -0.98901195 0 0 Z " fill="#BB2B00" transform="translate(36,21)"/>
<path d="M0 0 C3.63 0 7.26 0 11 0 C11 3.96 11 7.92 11 12 C7.37 12 3.74 12 0 12 C0 8.04 0 4.08 0 0 Z " fill="#666D6C" transform="translate(69,67)"/>
<path d="M0 0 C3.63 0 7.26 0 11 0 C11 3.96 11 7.92 11 12 C7.37 12 3.74 12 0 12 C0 8.04 0 4.08 0 0 Z " fill="#676D6C" transform="translate(16,67)"/>
<path d="M0 0 C3.63 0 7.26 0 11 0 C11 3.63 11 7.26 11 11 C7.37 11 3.74 11 0 11 C0 7.37 0 3.74 0 0 Z " fill="#1A2F41" transform="translate(16,52)"/>
<path d="M0 0 C3.63 0 7.26 0 11 0 C11 3.63 11 7.26 11 11 C7.37 11 3.74 11 0 11 C0 7.37 0 3.74 0 0 Z " fill="#1F3B50" transform="translate(69,52)"/>
<path d="M0 0 C3.63 0 7.26 0 11 0 C11 3.63 11 7.26 11 11 C7.37 11 3.74 11 0 11 C0 7.37 0 3.74 0 0 Z " fill="#25455B" transform="translate(69,36)"/>
<path d="M0 0 C3.63 0 7.26 0 11 0 C11 3.63 11 7.26 11 11 C7.37 11 3.74 11 0 11 C0 7.37 0 3.74 0 0 Z " fill="#274D67" transform="translate(16,36)"/>
<path d="M0 0 C0.33 0 0.66 0 1 0 C1 3.63 1 7.26 1 11 C4.63 11 8.26 11 12 11 C12 9.35 12 7.7 12 6 C12.99 5.34 13.98 4.68 15 4 C15 7.63 15 11.26 15 15 C9.39 15 3.78 15 -2 15 C-1.34 10.05 -0.68 5.1 0 0 Z " fill="#B49E83" transform="translate(68,68)"/>
<path d="M0 0 C0.66 0.33 1.32 0.66 2 1 C-2.64253394 6.74208145 -2.64253394 6.74208145 -6.34375 7.4453125 C-8.04650197 7.52414361 -9.74967509 7.59430637 -11.453125 7.65625 C-15.75190277 8.23645313 -18.52778679 10.49229046 -22 13 C-22 10.03 -22 7.06 -22 4 C-20.74703125 3.96261719 -19.4940625 3.92523437 -18.203125 3.88671875 C-16.55205379 3.82105115 -14.90101345 3.75460407 -13.25 3.6875 C-12.0125 3.65366211 -12.0125 3.65366211 -10.75 3.61914062 C-4.79314143 3.38451083 -4.79314143 3.38451083 0 0 Z " fill="#967960" transform="translate(35,26)"/>
<path d="M0 0 C3.3 0 6.6 0 10 0 C10 2.31 10 4.62 10 7 C6.78548731 8.60725635 3.56387464 8.05748185 0 8 C0 5.36 0 2.72 0 0 Z " fill="#264F6A" transform="translate(49,70)"/>
<path d="M0 0 C3.3 0 6.6 0 10 0 C10 2.64 10 5.28 10 8 C2.25 8.125 2.25 8.125 0 7 C0 4.69 0 2.38 0 0 Z " fill="#264F6A" transform="translate(37,70)"/>
<path d="M0 0 C4.17910132 1.60734666 6.62941515 3.18072441 9 7 C8.01 8.485 8.01 8.485 7 10 C6.38125 9.195625 5.7625 8.39125 5.125 7.5625 C3.25835959 4.96125481 3.25835959 4.96125481 1 4 C-4.79249688 3.45561242 -4.79249688 3.45561242 -9.875 5.875 C-10.57625 6.57625 -11.2775 7.2775 -12 8 C-12.66 8.66 -13.32 9.32 -14 10 C-14.33 8.68 -14.66 7.36 -15 6 C-10.13587296 1.75494368 -6.7686562 -1.12810937 0 0 Z " fill="#E1AD1B" transform="translate(51,26)"/>
<path d="M0 0 C3.3 0 6.6 0 10 0 C10 1.98 10 3.96 10 6 C8.68 5.67 7.36 5.34 6 5 C6 6.65 6 8.3 6 10 C5.34 10 4.68 10 4 10 C4 7.36 4 4.72 4 2 C2.68 2 1.36 2 0 2 C0 1.34 0 0.68 0 0 Z " fill="#1F3F58" transform="translate(17,68)"/>
<path d="M0 0 C0.33 0 0.66 0 1 0 C1 3.63 1 7.26 1 11 C-1.97 11 -4.94 11 -8 11 C-6.6875 9 -6.6875 9 -5 7 C-4.01 7 -3.02 7 -2 7 C-2.04125 6.21625 -2.0825 5.4325 -2.125 4.625 C-2 2 -2 2 0 0 Z " fill="#A78F71" transform="translate(82,72)"/>
<path d="M0 0 C0.33 0.66 0.66 1.32 1 2 C2.32 2 3.64 2 5 2 C5 4.97 5 7.94 5 11 C3.35 11 1.7 11 0 11 C0 7.37 0 3.74 0 0 Z " fill="#3D6D8B" transform="translate(16,52)"/>
<path d="M0 0 C0.33 0 0.66 0 1 0 C1 3.63 1 7.26 1 11 C-0.65 11 -2.3 11 -4 11 C-4 8.36 -4 5.72 -4 3 C-2.68 3 -1.36 3 0 3 C0 2.01 0 1.02 0 0 Z " fill="#3E7090" transform="translate(79,52)"/>
<path d="M0 0 C0.33 0 0.66 0 1 0 C1 3.63 1 7.26 1 11 C-0.65 11 -2.3 11 -4 11 C-4 8.36 -4 5.72 -4 3 C-2.68 3 -1.36 3 0 3 C0 2.01 0 1.02 0 0 Z " fill="#3A6E8E" transform="translate(79,36)"/>
<path d="M0 0 C0.33 0.99 0.66 1.98 1 3 C2.32 3 3.64 3 5 3 C5 5.64 5 8.28 5 11 C3.35 11 1.7 11 0 11 C0 7.37 0 3.74 0 0 Z " fill="#3B6E8D" transform="translate(16,36)"/>
<path d="M0 0 C3.03866799 -0.41137202 5.92159703 -0.13193156 9 0 C8.34 4.62 7.68 9.24 7 14 C6.67 14 6.34 14 6 14 C6 10.37 6 6.74 6 3 C3.36 3 0.72 3 -2 3 C-1.34 2.01 -0.68 1.02 0 0 Z " fill="#B8A58C" transform="translate(21,33)"/>
<path d="M0 0 C3.3 0 6.6 0 10 0 C10 0.66 10 1.32 10 2 C8.68 2 7.36 2 6 2 C6 4.64 6 7.28 6 10 C5.34 10 4.68 10 4 10 C4 7.69 4 5.38 4 3 C2.68 3.33 1.36 3.66 0 4 C0 2.68 0 1.36 0 0 Z " fill="#1D394F" transform="translate(69,68)"/>
<path d="M0 0 C0.66 0.66 1.32 1.32 2 2 C0.35 5.3 -1.3 8.6 -3 12 C-3.33 12 -3.66 12 -4 12 C-4 8.7 -4 5.4 -4 2 C-2.68 1.34 -1.36 0.68 0 0 Z " fill="#CCB69B" transform="translate(63,67)"/>
<path d="M0 0 C0.66 0 1.32 0 2 0 C2 2.97 2 5.94 2 9 C3.98 9 5.96 9 8 9 C8 9.66 8 10.32 8 11 C5.36 11 2.72 11 0 11 C0 7.37 0 3.74 0 0 Z " fill="#4C5662" transform="translate(46,33)"/>
<path d="M0 0 C1.32 0 2.64 0 4 0 C4 2.64 4 5.28 4 8 C2.68 8 1.36 8 0 8 C0 5.36 0 2.72 0 0 Z " fill="#2D6C95" transform="translate(75,70)"/>
<path d="M0 0 C1.32 0 2.64 0 4 0 C4 2.64 4 5.28 4 8 C2.68 8 1.36 8 0 8 C0 5.36 0 2.72 0 0 Z " fill="#2D6C95" transform="translate(17,70)"/>
<path d="M0 0 C0.99 0 1.98 0 3 0 C3 2.64 3 5.28 3 8 C1.68 8 0.36 8 -1 8 C-1.04241723 5.66705225 -1.04092937 3.33297433 -1 1 C-0.67 0.67 -0.34 0.34 0 0 Z " fill="#337199" transform="translate(70,55)"/>
<path d="M0 0 C-0.33 1.32 -0.66 2.64 -1 4 C-3.97 4 -6.94 4 -10 4 C-10 3.01 -10 2.02 -10 1 C-2.25 0 -2.25 0 0 0 Z " fill="#234155" transform="translate(59,77)"/>
<path d="M0 0 C3.3 0.33 6.6 0.66 10 1 C10 1.99 10 2.98 10 4 C7.03 4 4.06 4 1 4 C0.67 2.68 0.34 1.36 0 0 Z " fill="#234155" transform="translate(37,77)"/>
<path d="M0 0 C2.31 0 4.62 0 7 0 C7 1.32 7 2.64 7 4 C4.69 4 2.38 4 0 4 C0 2.68 0 1.36 0 0 Z " fill="#AE9779" transform="translate(18,79)"/>
<path d="M0 0 C0.99 0 1.98 0 3 0 C3 2.31 3 4.62 3 7 C1.68 7 0.36 7 -1 7 C-1.04254356 5.00045254 -1.04080783 2.99958364 -1 1 C-0.67 0.67 -0.34 0.34 0 0 Z " fill="#2D709B" transform="translate(70,71)"/>
<path d="M0 0 C1.32 0.33 2.64 0.66 4 1 C4 2.98 4 4.96 4 7 C2.68 7 1.36 7 0 7 C0 4.69 0 2.38 0 0 Z " fill="#35759E" transform="translate(23,56)"/>
<path d="M0 0 C0.99 0 1.98 0 3 0 C3 2.31 3 4.62 3 7 C1.68 7 0.36 7 -1 7 C-1.04254356 5.00045254 -1.04080783 2.99958364 -1 1 C-0.67 0.67 -0.34 0.34 0 0 Z " fill="#31739E" transform="translate(70,40)"/>
<path d="M0 0 C1.98 0 3.96 0 6 0 C6 0.99 6 1.98 6 3 C4.68 3 3.36 3 2 3 C2 5.31 2 7.62 2 10 C1.67 10 1.34 10 1 10 C0.67 6.7 0.34 3.4 0 0 Z " fill="#213749" transform="translate(73,36)"/>
<path d="M0 0 C0.66 0.33 1.32 0.66 2 1 C-2.57928118 6.78435518 -2.57928118 6.78435518 -6.625 7.3984375 C-9.10756078 7.37727931 -11.53196808 7.26338681 -14 7 C-14 6.67 -14 6.34 -14 6 C-11.03 6 -8.06 6 -5 6 C-4.67 5.01 -4.34 4.02 -4 3 C-1.9375 1.3125 -1.9375 1.3125 0 0 Z " fill="#B5997C" transform="translate(35,26)"/>
<path d="M0 0 C2.64 0 5.28 0 8 0 C8 0.99 8 1.98 8 3 C5.36 3 2.72 3 0 3 C0 2.01 0 1.02 0 0 Z " fill="#2C6184" transform="translate(49,71)"/>
<path d="M0 0 C2.64 0 5.28 0 8 0 C8 0.99 8 1.98 8 3 C5.36 3 2.72 3 0 3 C0 2.01 0 1.02 0 0 Z " fill="#2B6184" transform="translate(39,71)"/>
<path d="M0 0 C1.65 0 3.3 0 5 0 C5 3.63 5 7.26 5 11 C4.67 11 4.34 11 4 11 C4 8.36 4 5.72 4 3 C2.68 3 1.36 3 0 3 C0 2.01 0 1.02 0 0 Z " fill="#203546" transform="translate(17,36)"/>
<path d="M0 0 C1.32 0.33 2.64 0.66 4 1 C3.67 1.99 3.34 2.98 3 4 C2.01 3.67 1.02 3.34 0 3 C0 5.31 0 7.62 0 10 C-0.66 9.67 -1.32 9.34 -2 9 C-1.34 6.03 -0.68 3.06 0 0 Z " fill="#264C68" transform="translate(23,53)"/>
<path d="M0 0 C1.32 0.33 2.64 0.66 4 1 C4 2.32 4 3.64 4 5 C2.68 5 1.36 5 0 5 C0 3.35 0 1.7 0 0 Z " fill="#3077A6" transform="translate(23,73)"/>
<path d="M0 0 C1.32 0.33 2.64 0.66 4 1 C4 2.32 4 3.64 4 5 C2.68 5 1.36 5 0 5 C0 3.35 0 1.7 0 0 Z " fill="#3379A6" transform="translate(23,42)"/>
</svg>
