<?xml version="1.0" encoding="UTF-8"?>
<svg version="1.1" xmlns="http://www.w3.org/2000/svg" width="193" height="40">
<path d="M0 0 C2.49361571 1.20381448 4.68143083 2.45428722 7 4 C9.22222203 4.29130251 11.40958877 4.37630748 13.6484375 4.4609375 C16.99421649 5.22791009 18.59300239 6.56151082 21 9 C21.47583008 12.20800781 21.47583008 12.20800781 21.26953125 15.953125 C21.22562508 16.94345734 21.22562508 16.94345734 21.18083191 17.95379639 C21.08215519 20.05456735 20.94787633 22.15130622 20.8125 24.25 C20.7391771 25.67696406 20.66818699 27.10405002 20.59960938 28.53125 C20.43107135 32.02384515 20.21448866 35.50871921 20 39 C15.71 39 11.42 39 7 39 C7 36.36 7 33.72 7 31 C3.04 31 -0.92 31 -5 31 C-5 33.64 -5 36.28 -5 39 C-9.29 39 -13.58 39 -18 39 C-18.28107777 34.79916495 -18.5428018 30.60589707 -18.75683594 26.40234375 C-18.83525464 24.97395673 -18.92467742 23.546129 -19.02539062 22.11914062 C-19.16848593 20.06429198 -19.27155744 18.01066215 -19.3671875 15.953125 C-19.44050293 14.71723633 -19.51381836 13.48134766 -19.58935547 12.20800781 C-19 9 -19 9 -16.14379883 6.6105957 C-13.20950032 5.10732885 -11.04924498 4.37408421 -7.8125 3.9375 C-4.1422408 3.43572877 -2.39883411 2.88328921 0 0 Z " fill="#C0AA90" transform="translate(19,0)"/>
<path d="M0 0 C1.32 0 2.64 0 4 0 C7.96 6.93 11.92 13.86 16 21 C16.66 21 17.32 21 18 21 C19.18054761 19.45048055 19.18054761 19.45048055 20.27734375 17.421875 C20.70853516 16.67292969 21.13972656 15.92398437 21.58398438 15.15234375 C22.03064453 14.35957031 22.47730469 13.56679688 22.9375 12.75 C23.8193999 11.2018613 24.70345202 9.65494627 25.58984375 8.109375 C25.98034912 7.41811523 26.37085449 6.72685547 26.77319336 6.01464844 C28.06045313 3.90072453 29.4857683 1.95614517 31 0 C31.99 0.33 32.98 0.66 34 1 C34.04969106 5.16258147 34.08585642 9.32500261 34.10986328 13.48779297 C34.11987856 14.90188609 34.13349474 16.31595873 34.15087891 17.72998047 C34.17532559 19.77055946 34.18652784 21.81086303 34.1953125 23.8515625 C34.21102295 25.68968506 34.21102295 25.68968506 34.22705078 27.56494141 C33.99746626 31.03833297 33.2511457 33.76606976 32 37 C31.01 36.67 30.02 36.34 29 36 C28.97285566 33.2915983 28.95309154 30.58347279 28.9375 27.875 C28.92912109 27.11445313 28.92074219 26.35390625 28.91210938 25.5703125 C28.89353491 21.2610356 29.13882735 17.24483526 30 13 C29.34 13 28.68 13 28 13 C27.75507813 13.70511719 27.51015625 14.41023438 27.2578125 15.13671875 C25.82532472 18.39763037 24.00478131 20.96134115 21.875 23.8125 C21.15054688 24.78832031 20.42609375 25.76414062 19.6796875 26.76953125 C19.12539062 27.50558594 18.57109375 28.24164062 18 29 C16.265625 28.93359375 16.265625 28.93359375 14 28 C12.40234664 25.69389816 11.06469411 23.51903029 9.75 21.0625 C9.38648438 20.41603516 9.02296875 19.76957031 8.6484375 19.10351562 C6 14.30944549 6 14.30944549 6 12 C5.34 12 4.68 12 4 12 C4.01160156 13.07378906 4.02320313 14.14757812 4.03515625 15.25390625 C4.04454315 16.69010241 4.05364238 18.12630048 4.0625 19.5625 C4.07087891 20.26697266 4.07925781 20.97144531 4.08789062 21.69726562 C4.10869817 26.21250341 3.97777989 30.56926028 3 35 C2.01 35.66 1.02 36.32 0 37 C-0.66 36.67 -1.32 36.34 -2 36 C-1.01 18.18 -1.01 18.18 0 0 Z " fill="#EBEBEC" transform="translate(159,3)"/>
<path d="M0 0 C2.49361571 1.20381448 4.68143083 2.45428722 7 4 C9.22222203 4.29130251 11.40958877 4.37630748 13.6484375 4.4609375 C16.99421649 5.22791009 18.59300239 6.56151082 21 9 C21.47583008 12.20800781 21.47583008 12.20800781 21.26953125 15.953125 C21.22562508 16.94345734 21.22562508 16.94345734 21.18083191 17.95379639 C21.08215519 20.05456735 20.94787633 22.15130622 20.8125 24.25 C20.7391771 25.67696406 20.66818699 27.10405002 20.59960938 28.53125 C20.43107135 32.02384515 20.21448866 35.50871921 20 39 C15.71 39 11.42 39 7 39 C7.99 38.01 8.98 37.02 10 36 C10.66 36 11.32 36 12 36 C11.979375 35.21625 11.95875 34.4325 11.9375 33.625 C12 31 12 31 13 29 C13.04022391 26.6670134 13.04320247 24.33293334 13 22 C14.98 22 16.96 22 19 22 C19 21.34 19 20.68 19 20 C17.02 20 15.04 20 13 20 C13 17.69 13 15.38 13 13 C14.32 12.67 15.64 12.34 17 12 C15.515 11.690625 15.515 11.690625 14 11.375 C9.23494405 10.04974927 5.76051425 7.10608709 2 4 C-0.74517485 5.27710308 -2.92718016 6.69683402 -5.25 8.625 C-9.23515861 11.57280713 -12.15186953 11.4252746 -17 11 C-17 11.66 -17 12.32 -17 13 C-14.69 13 -12.38 13 -10 13 C-10 15.31 -10 17.62 -10 20 C-12.31 20 -14.62 20 -17 20 C-17 20.66 -17 21.32 -17 22 C-14.69 22 -12.38 22 -10 22 C-10 26.95 -10 31.9 -10 37 C-8.35 37.33 -6.7 37.66 -5 38 C-5 38.33 -5 38.66 -5 39 C-9.29 39 -13.58 39 -18 39 C-18.28107777 34.79916495 -18.5428018 30.60589707 -18.75683594 26.40234375 C-18.83525464 24.97395673 -18.92467742 23.546129 -19.02539062 22.11914062 C-19.16848593 20.06429198 -19.27155744 18.01066215 -19.3671875 15.953125 C-19.44050293 14.71723633 -19.51381836 13.48134766 -19.58935547 12.20800781 C-19 9 -19 9 -16.14379883 6.6105957 C-13.20950032 5.10732885 -11.04924498 4.37408421 -7.8125 3.9375 C-4.1422408 3.43572877 -2.39883411 2.88328921 0 0 Z " fill="#9B9587" transform="translate(19,0)"/>
<path d="M0 0 C2.98250149 2.42328246 3.93377341 4.1235701 4.4375 7.9375 C3.87614185 12.66894726 2.4142399 14.35920532 -1 17.625 C-2.98 18.615 -4.96 19.605 -7 20.625 C-2.71 24.255 1.58 27.885 6 31.625 C5.34 32.945 4.68 34.265 4 35.625 C-0.93952818 32.83699045 -5.0587134 29.33268868 -9.37890625 25.68359375 C-12.08934492 23.4130353 -12.08934492 23.4130353 -16 21.625 C-16.33 25.915 -16.66 30.205 -17 34.625 C-18.98 35.12 -18.98 35.12 -21 35.625 C-22 34.625 -22 34.625 -22.03759766 32.69824219 C-21.99683105 31.86454102 -21.95606445 31.03083984 -21.9140625 30.171875 C-21.87079834 29.24777832 -21.82753418 28.32368164 -21.78295898 27.37158203 C-21.73083252 26.38270996 -21.67870605 25.39383789 -21.625 24.375 C-21.57609619 23.37968262 -21.52719238 22.38436523 -21.47680664 21.35888672 C-21.10866267 14.10321074 -20.64177824 6.86207375 -20 -0.375 C-13.20188014 -2.88734864 -6.68690423 -3.06483111 0 0 Z M-15 2.625 C-15.33 6.915 -15.66 11.205 -16 15.625 C-10.55885858 15.90643835 -6.53664747 16.05514809 -2 12.625 C-1.02126462 9.03114946 -1.02126462 9.03114946 -1 5.625 C-5.6638502 2.01427726 -9.33377141 2.37128827 -15 2.625 Z " fill="#E6E6E7" transform="translate(109,4.375)"/>
<path d="M0 0 C2.00488281 0.12719727 2.00488281 0.12719727 4 1 C5.09667969 2.73413086 5.09667969 2.73413086 5.921875 4.96484375 C6.22480469 5.76470703 6.52773437 6.56457031 6.83984375 7.38867188 C7.14019531 8.22978516 7.44054687 9.07089844 7.75 9.9375 C8.06582031 10.77474609 8.38164062 11.61199219 8.70703125 12.47460938 C11 18.6437872 11 18.6437872 11 21 C11.66 21 12.32 21 13 21 C13.28875 22.216875 13.5775 23.43375 13.875 24.6875 C14.49114995 27.20085987 15.15636805 29.36211547 16.1875 31.75 C17.11228113 34.31093237 16.93179527 35.48415277 16 38 C14.140625 37.80859375 14.140625 37.80859375 12 37 C10.734375 34.78515625 10.734375 34.78515625 9.75 32.0625 C9.24726563 30.71865234 9.24726563 30.71865234 8.734375 29.34765625 C8 27 8 27 8 25 C2.72 25.33 -2.56 25.66 -8 26 C-8.45375 27.423125 -8.9075 28.84625 -9.375 30.3125 C-10.33944209 33.3373411 -11.20931427 35.3139714 -13 38 C-13.99 37.67 -14.98 37.34 -16 37 C-15.46855176 31.89558739 -14.30348999 27.90129644 -12.12890625 23.26171875 C-11.84651596 22.65487747 -11.56412567 22.04803619 -11.2731781 21.42280579 C-10.67991526 20.15277687 -10.0822042 18.88481702 -9.48022461 17.61889648 C-8.55883565 15.67978819 -7.6524431 13.73419244 -6.74804688 11.78710938 C-2.2990599 2.2990599 -2.2990599 2.2990599 0 0 Z M0 9 C-0.67667998 10.24460783 -1.34094719 11.49596896 -2 12.75 C-2.37125 13.44609375 -2.7425 14.1421875 -3.125 14.859375 C-4.25224649 17.23167757 -4.25224649 17.23167757 -4 21 C-0.7 21 2.6 21 6 21 C5.52309796 19.37433394 5.04340334 17.74948689 4.5625 16.125 C4.29566406 15.22007813 4.02882812 14.31515625 3.75390625 13.3828125 C3.07386174 11.01724619 3.07386174 11.01724619 2 9 C1.34 9 0.68 9 0 9 Z " fill="#EBEBEC" transform="translate(135,2)"/>
<path d="M0 0 C0.78552246 0.05236816 1.57104492 0.10473633 2.38037109 0.15869141 C3.65654297 0.23603516 3.65654297 0.23603516 4.95849609 0.31494141 C5.84794922 0.37939453 6.73740234 0.44384766 7.65380859 0.51025391 C8.99958984 0.59533203 8.99958984 0.59533203 10.37255859 0.68212891 C12.59209484 0.82380143 14.81053262 0.9752243 17.02880859 1.13525391 C16.69880859 2.45525391 16.36880859 3.77525391 16.02880859 5.13525391 C11.07880859 5.13525391 6.12880859 5.13525391 1.02880859 5.13525391 C1.02880859 9.09525391 1.02880859 13.05525391 1.02880859 17.13525391 C4.98880859 17.13525391 8.94880859 17.13525391 13.02880859 17.13525391 C13.02880859 18.45525391 13.02880859 19.77525391 13.02880859 21.13525391 C9.06880859 21.13525391 5.10880859 21.13525391 1.02880859 21.13525391 C1.07005859 23.03275391 1.11130859 24.93025391 1.15380859 26.88525391 C1.24158486 30.92296196 1.17217021 33.65862011 -0.97119141 37.13525391 C-1.96119141 36.80525391 -2.95119141 36.47525391 -3.97119141 36.13525391 C-4.02056024 31.32976794 -4.05689583 26.52442897 -4.08105469 21.71875 C-4.09112395 20.08330718 -4.10478021 18.44788242 -4.12207031 16.8125 C-4.14627845 14.46431021 -4.15766498 12.11635803 -4.16650391 9.76806641 C-4.18198776 8.66798752 -4.18198776 8.66798752 -4.19778442 7.54568481 C-4.19818509 5.74062693 -4.09331895 3.93617561 -3.97119141 2.13525391 C-1.97119141 0.13525391 -1.97119141 0.13525391 0 0 Z " fill="#EBEBEC" transform="translate(64.97119140625,2.86474609375)"/>
<path d="M0 0 C2.8125 0 2.8125 0 6 1 C7.11250055 3.02431473 7.74024747 4.96499092 8.359375 7.1875 C8.83762122 9.20808982 8.83762122 9.20808982 11 10 C15.67181016 10.41527201 18.17508513 9.69993991 22 7 C22.125 14.75 22.125 14.75 21 17 C18.95208097 16.48802024 16.97922678 15.99221004 15 15.25 C12.91517417 14.81847273 12.91517417 14.81847273 10.8125 15.9375 C8.05908177 19.07070005 8.26980345 21.88549733 8 26 C6.02 26 4.04 26 2 26 C2.33 23.36 2.66 20.72 3 18 C0.69 18 -1.62 18 -4 18 C-4 17.67 -4 17.34 -4 17 C-1.69 17 0.62 17 3 17 C3 14.69 3 12.38 3 10 C0.69 10 -1.62 10 -4 10 C-4 9.34 -4 8.68 -4 8 C-1.69 8 0.62 8 3 8 C3 5.69 3 3.38 3 1 C2.01 0.67 1.02 0.34 0 0 Z " fill="#D0BA9F" transform="translate(6,12)"/>
<path d="M0 0 C0 9.24 0 18.48 0 28 C-4.29 28 -8.58 28 -13 28 C-12.01 27.01 -11.02 26.02 -10 25 C-9.34 25 -8.68 25 -8 25 C-8.020625 24.21625 -8.04125 23.4325 -8.0625 22.625 C-8 20 -8 20 -7 18 C-6.95977609 15.6670134 -6.95679753 13.33293334 -7 11 C-5.02 11 -3.04 11 -1 11 C-1 10.34 -1 9.68 -1 9 C-2.98 9 -4.96 9 -7 9 C-7 6.69 -7 4.38 -7 2 C-4.35261084 0.5393715 -3.10551666 0 0 0 Z " fill="#918D81" transform="translate(39,11)"/>
<path d="M0 0 C2.49361571 1.20381448 4.68143083 2.45428722 7 4 C9.11429795 4.30753109 9.11429795 4.30753109 11.375 4.375 C15.65256853 4.75879489 17.98368425 5.78908323 21 9 C21 9.66 21 10.32 21 11 C16.30771106 11.61714865 12.51586124 11.88554705 8.33203125 9.44140625 C6.13301816 7.70387127 4.03465889 5.92653692 2 4 C-0.54059958 5.19748005 -2.37016523 6.30696629 -4.5625 8.125 C-9.38110591 10.7533305 -13.62523347 10.34429109 -19 10 C-15.90504054 6.36808372 -13.58177327 5.35254269 -8.9375 4.4375 C-3.77995306 3.42702751 -3.77995306 3.42702751 0 0 Z " fill="#BD4D28" transform="translate(19,0)"/>
<path d="M0 0 C1.875 1.125 1.875 1.125 3 3 C3.3125 6.0625 3.3125 6.0625 3 9 C1 11 1 11 -2.4375 11.3125 C-6 11 -6 11 -7.9375 9.8125 C-9.38718434 7.33950907 -9.42317323 5.82115488 -9 3 C-6.73529086 -0.64869805 -4.03159541 -0.50394943 0 0 Z " fill="#EBE9E3" transform="translate(23,10)"/>
<path d="M0 0 C0.125 7.75 0.125 7.75 -1 10 C-5 9 -5 9 -6.9375 8.3125 C-9.74377606 7.88730666 -11.47729232 8.80872137 -14 10 C-15.4783226 7.04335481 -15.06032783 4.25770263 -15 1 C-14.195625 1.495 -14.195625 1.495 -13.375 2 C-10.35724758 3.2706326 -8.25007259 3.33854923 -5 3 C-0.375 0 -0.375 0 0 0 Z " fill="#EDD6BA" transform="translate(28,19)"/>
<path d="M0 0 C2.99031988 1.7038998 5.08398355 3.84977589 7.40625 6.37109375 C6.41625 7.85609375 6.41625 7.85609375 5.40625 9.37109375 C4.91125 8.71109375 4.41625 8.05109375 3.90625 7.37109375 C0.30284788 4.48837205 -2.06360042 5.06908378 -6.59375 5.37109375 C-7.25375 8.01109375 -7.91375 10.65109375 -8.59375 13.37109375 C-10.09375 11.99609375 -10.09375 11.99609375 -11.59375 10.37109375 C-11.59375 9.71109375 -11.59375 9.05109375 -11.59375 8.37109375 C-14.23375 8.70109375 -16.87375 9.03109375 -19.59375 9.37109375 C-19.59375 8.71109375 -19.59375 8.05109375 -19.59375 7.37109375 C-17.8921875 7.34015625 -17.8921875 7.34015625 -16.15625 7.30859375 C-11.12339322 6.75533644 -8.36121476 4.05344175 -4.76953125 0.671875 C-2.59375 -0.62890625 -2.59375 -0.62890625 0 0 Z " fill="#C3A685" transform="translate(21.59375,3.62890625)"/>
<path d="M0 0 C1.134375 0.020625 2.26875 0.04125 3.4375 0.0625 C3.4375 3.0325 3.4375 6.0025 3.4375 9.0625 C-0.8525 9.0625 -5.1425 9.0625 -9.5625 9.0625 C-8.5725 8.0725 -7.5825 7.0825 -6.5625 6.0625 C-5.9025 6.0625 -5.2425 6.0625 -4.5625 6.0625 C-4.583125 5.258125 -4.60375 4.45375 -4.625 3.625 C-4.52750049 -0.37247981 -4.13731851 0.07258454 0 0 Z " fill="#9D8E79" transform="translate(35.5625,29.9375)"/>
<path d="M0 0 C2.9375 2.0625 2.9375 2.0625 5 5 C5.06641554 8.85210127 4.87229157 10.99848005 2.3125 13.9375 C-0.73602877 15.33817538 -2.67926952 15.4842732 -6 15 C-8.375 13.4375 -8.375 13.4375 -10 11 C-10.56783945 7.02512383 -10.62340519 4.93510779 -8.375 1.5625 C-5.24316508 -0.49791771 -3.68455227 -0.6767545 0 0 Z M-7.875 3.1875 C-9.40659584 5.65507108 -9.42822025 7.14519831 -9 10 C-8.04451019 11.95625978 -8.04451019 11.95625978 -6 13 C-2.45800359 13.41673207 -2.45800359 13.41673207 1 13 C3.29827312 11.12061828 3.29827312 11.12061828 3.3125 8.0625 C3.22697575 5.07739953 3.22697575 5.07739953 1.875 3.125 C-1.40590937 1.15645438 -4.63655038 1.1364819 -7.875 3.1875 Z " fill="#E2B84D" transform="translate(23,8)"/>
<path d="M0 0 C2.97 0 5.94 0 9 0 C9 0.33 9 0.66 9 1 C6.36 1 3.72 1 1 1 C1 1.66 1 2.32 1 3 C3.31 3 5.62 3 8 3 C8 4.98 8 6.96 8 9 C5.69 9 3.38 9 1 9 C0.67 6.03 0.34 3.06 0 0 Z " fill="#7D6E63" transform="translate(1,10)"/>
<path d="M0 0 C0.66 1.32 1.32 2.64 2 4 C5.05908413 4.81584568 5.05908413 4.81584568 8 5 C8 5.66 8 6.32 8 7 C6.02 7 4.04 7 2 7 C2 9.31 2 11.62 2 14 C3.98 14 5.96 14 8 14 C8 14.33 8 14.66 8 15 C6.576875 15.1546875 6.576875 15.1546875 5.125 15.3125 C1.70892499 15.68539295 1.70892499 15.68539295 0 19 C0 12.73 0 6.46 0 0 Z " fill="#C8BAA4" transform="translate(30,15)"/>
<path d="M0 0 C7.26153846 -0.61538462 7.26153846 -0.61538462 11 2.5 C11.66 3.325 12.32 4.15 13 5 C5.73846154 5.61538462 5.73846154 5.61538462 2 2.5 C1.34 1.675 0.68 0.85 0 0 Z " fill="#A22B09" transform="translate(27,5)"/>
<path d="M0 0 C1.875 1.0625 1.875 1.0625 4.875 5.0625 C0.915 5.0625 -3.045 5.0625 -7.125 5.0625 C-2.75092047 0.08090943 -2.75092047 0.08090943 0 0 Z " fill="#E75224" transform="translate(21.125,25.9375)"/>
<path d="M0 0 C-3.85623679 4.82029598 -3.85623679 4.82029598 -7.11328125 5.33203125 C-9.07856214 5.3145776 -11.04166127 5.16596091 -13 5 C-8.49251112 0.34226149 -6.53321609 -0.12098548 0 0 Z " fill="#9F2A08" transform="translate(13,5)"/>
<path d="M0 0 C1.46726798 3.81489674 0.43336419 6.29011622 -1 10 C-2.5 8.625 -2.5 8.625 -4 7 C-4 6.34 -4 5.68 -4 5 C-6.64 5.33 -9.28 5.66 -12 6 C-12 5.34 -12 4.68 -12 4 C-10.7625 3.896875 -9.525 3.79375 -8.25 3.6875 C-4.7207134 3.26198318 -2.62839034 2.51887408 0 0 Z " fill="#B89A76" transform="translate(14,7)"/>
<path d="M0 0 C1.98 0 3.96 0 6 0 C6 1.98 6 3.96 6 6 C4.02 6 2.04 6 0 6 C0 4.02 0 2.04 0 0 Z " fill="#365E77" transform="translate(32,31)"/>
<path d="M0 0 C1.98 0 3.96 0 6 0 C6 1.98 6 3.96 6 6 C4.02 6 2.04 6 0 6 C0 4.02 0 2.04 0 0 Z " fill="#375F79" transform="translate(3,31)"/>
<path d="M0 0 C0 0.33 0 0.66 0 1 C-0.94875 1.28875 -1.8975 1.5775 -2.875 1.875 C-6.05211578 2.76825109 -6.05211578 2.76825109 -8 5 C-8.36317797 7.83278817 -8.47723188 9.35573697 -6.75 11.6875 C-4.91358281 13.0648129 -3.09211779 14.0621541 -1 15 C-4.375 14.6875 -4.375 14.6875 -8 14 C-10.48038907 10.2794164 -10.46337203 8.40203429 -10 4 C-7.21083461 -0.18374808 -4.85662887 -0.44151172 0 0 Z " fill="#E0B13A" transform="translate(23,8)"/>
<path d="M0 0 C0.598125 0.226875 1.19625 0.45375 1.8125 0.6875 C1.8125 2.3375 1.8125 3.9875 1.8125 5.6875 C2.4725 5.6875 3.1325 5.6875 3.8125 5.6875 C3.8125 6.3475 3.8125 7.0075 3.8125 7.6875 C2.1625 7.3575 0.5125 7.0275 -1.1875 6.6875 C-1.5175 5.3675 -1.8475 4.0475 -2.1875 2.6875 C-2.8475 4.3375 -3.5075 5.9875 -4.1875 7.6875 C-4.5175 7.6875 -4.8475 7.6875 -5.1875 7.6875 C-5.41803497 4.84423536 -5.54653101 3.22604651 -3.9375 0.8125 C-2.1875 -0.3125 -2.1875 -0.3125 0 0 Z " fill="#B9BAB7" transform="translate(19.1875,10.3125)"/>
<path d="M0 0 C0 2.64 0 5.28 0 8 C-1.98 8 -3.96 8 -6 8 C-2.8 0 -2.8 0 0 0 Z " fill="#BEA589" transform="translate(14,30)"/>
<path d="M0 0 C1.65 0 3.3 0 5 0 C5 1.98 5 3.96 5 6 C3.35 6 1.7 6 0 6 C0 4.02 0 2.04 0 0 Z " fill="#2F5C79" transform="translate(32,22)"/>
<path d="M0 0 C1.65 0 3.3 0 5 0 C5 1.98 5 3.96 5 6 C3.35 6 1.7 6 0 6 C0 4.02 0 2.04 0 0 Z " fill="#305C79" transform="translate(3,22)"/>
<path d="M0 0 C0.33 0 0.66 0 1 0 C1 1.98 1 3.96 1 6 C4.63 6.33 8.26 6.66 12 7 C12 7.33 12 7.66 12 8 C7.71 8 3.42 8 -1 8 C-0.67 5.36 -0.34 2.72 0 0 Z " fill="#928370" transform="translate(2,31)"/>
<path d="M0 0 C1.65 0 3.3 0 5 0 C5 1.65 5 3.3 5 5 C3.35 5 1.7 5 0 5 C0 3.35 0 1.7 0 0 Z " fill="#25587B" transform="translate(32,14)"/>
<path d="M0 0 C1.65 0 3.3 0 5 0 C5 1.65 5 3.3 5 5 C3.35 5 1.7 5 0 5 C0 3.35 0 1.7 0 0 Z " fill="#26587A" transform="translate(3,14)"/>
<path d="M0 0 C0.99 0.33 1.98 0.66 3 1 C1.7391988 2.03319813 0.46596742 3.05124379 -0.8125 4.0625 C-1.87404297 4.91521484 -1.87404297 4.91521484 -2.95703125 5.78515625 C-3.63121094 6.18605469 -4.30539063 6.58695313 -5 7 C-5.99 6.67 -6.98 6.34 -8 6 C-6.7391988 4.96680187 -5.46596742 3.94875621 -4.1875 2.9375 C-3.47980469 2.36902344 -2.77210937 1.80054688 -2.04296875 1.21484375 C-1.36878906 0.81394531 -0.69460937 0.41304688 0 0 Z " fill="#D54D22" transform="translate(16,3)"/>
<path d="M0 0 C0.33 0 0.66 0 1 0 C1.125 7.75 1.125 7.75 0 10 C-1.32 9.67 -2.64 9.34 -4 9 C-3.34 8.67 -2.68 8.34 -2 8 C-2.04125 7.05125 -2.0825 6.1025 -2.125 5.125 C-2 2 -2 2 0 0 Z " fill="#DFC7AB" transform="translate(27,19)"/>
<path d="M0 0 C0.33 0 0.66 0 1 0 C1.33 1.98 1.66 3.96 2 6 C4.97 6.495 4.97 6.495 8 7 C8 7.33 8 7.66 8 8 C6.576875 8.1546875 6.576875 8.1546875 5.125 8.3125 C1.70892499 8.68539295 1.70892499 8.68539295 0 12 C0 8.04 0 4.08 0 0 Z " fill="#D9C5AB" transform="translate(30,22)"/>
<path d="M0 0 C4.875 1.75 4.875 1.75 6 4 C3.36 3.67 0.72 3.34 -2 3 C-1.34 2.01 -0.68 1.02 0 0 Z " fill="#BF9D7E" transform="translate(19,3)"/>
</svg>
